<svg xmlns="http://www.w3.org/2000/svg" viewBox="0 0 512 512" width="512" height="512">
  <rect width="512" height="512" rx="128" fill="#4f46e5" />
  <g transform="translate(96, 96)" fill="none" stroke="#ffffff" stroke-width="24" stroke-linecap="round" stroke-linejoin="round">
    <path d="M40 80h240a20 20 0 0 1 20 20v140a20 20 0 0 1-20 20H40a20 20 0 0 1-20-20V100a20 20 0 0 1 20-20z" />
    <path d="M220 170a20 20 0 1 0 0 .1" fill="#ffffff" />
    <path d="M60 80V50a20 20 0 0 1 20-20h160a20 20 0 0 1 20 20v30" />
  </g>
</svg>
